<svg xmlns="http://www.w3.org/2000/svg" xmlns:xlink="http://www.w3.org/1999/xlink" preserveAspectRatio="xMidYMid" width="14.406" height="9.28" viewBox="0 0 14.406 9.28">
  <defs>
    <style>
      .cls-1 {
        fill: #000;
        fill-rule: evenodd;
      }
    </style>
  </defs>
  <path d="M0.488,0.872 C0.290,0.768 0.142,0.596 0.043,0.357 C-0.056,0.117 0.076,-0.003 0.441,-0.003 L13.972,-0.003 C14.337,-0.003 14.470,0.117 14.371,0.357 C14.272,0.596 14.123,0.768 13.926,0.872 C13.832,0.925 13.475,1.117 12.855,1.450 C12.235,1.784 11.569,2.141 10.855,2.521 C10.142,2.901 9.488,3.250 8.894,3.568 C8.301,3.886 7.978,4.060 7.926,4.091 C7.832,4.143 7.722,4.182 7.597,4.208 C7.472,4.234 7.342,4.247 7.207,4.247 C7.071,4.247 6.941,4.234 6.816,4.208 C6.691,4.182 6.582,4.143 6.488,4.091 C6.436,4.070 6.113,3.898 5.519,3.575 C4.926,3.253 4.272,2.901 3.558,2.521 C2.845,2.141 2.178,1.784 1.558,1.450 C0.938,1.117 0.582,0.925 0.488,0.872 L0.488,0.872 ZM14.097,2.466 C14.254,2.383 14.345,2.372 14.371,2.435 C14.397,2.497 14.410,2.570 14.410,2.654 C14.410,2.685 14.410,3.008 14.410,3.622 C14.410,4.237 14.410,4.906 14.410,5.630 C14.410,6.354 14.410,7.315 14.410,8.513 C14.410,8.680 14.321,8.849 14.144,9.021 C13.967,9.193 13.790,9.279 13.613,9.279 L0.801,9.279 C0.623,9.279 0.446,9.193 0.269,9.021 C0.092,8.849 0.004,8.680 0.004,8.513 C0.004,7.315 0.004,6.354 0.004,5.630 C0.004,4.906 0.004,4.237 0.004,3.622 C0.004,3.008 0.004,2.680 0.004,2.638 C0.004,2.565 0.017,2.497 0.043,2.435 C0.069,2.372 0.160,2.383 0.316,2.466 C0.431,2.529 0.803,2.724 1.433,3.052 C2.063,3.380 2.740,3.734 3.465,4.115 C4.188,4.495 4.855,4.844 5.465,5.161 C6.074,5.479 6.415,5.659 6.488,5.700 C6.623,5.763 6.743,5.805 6.847,5.825 C6.951,5.846 7.071,5.857 7.207,5.857 C7.342,5.857 7.462,5.846 7.566,5.825 C7.670,5.805 7.790,5.763 7.926,5.700 C7.998,5.659 8.340,5.479 8.949,5.161 C9.558,4.844 10.225,4.495 10.949,4.115 C11.673,3.734 12.350,3.380 12.980,3.052 C13.610,2.724 13.983,2.529 14.097,2.466 L14.097,2.466 L14.097,2.466 L14.097,2.466 Z" class="cls-1"/>
</svg>
