<svg xmlns="http://www.w3.org/2000/svg" xmlns:xlink="http://www.w3.org/1999/xlink" preserveAspectRatio="xMidYMid" width="9.469" height="16" viewBox="0 0 9.469 16">
  <defs>
    <style>
      .cls-1 {
        fill: #000;
        fill-rule: evenodd;
      }
    </style>
  </defs>
  <path d="M7.848,0.008 C8.296,0.008 8.679,0.170 8.997,0.492 C9.314,0.815 9.473,1.201 9.473,1.649 L9.473,14.383 C9.473,14.831 9.314,15.214 8.997,15.531 C8.679,15.849 8.296,16.008 7.848,16.008 L1.629,16.008 C1.181,16.008 0.799,15.849 0.481,15.531 C0.163,15.214 0.004,14.831 0.004,14.383 L0.004,1.649 C0.004,1.201 0.163,0.815 0.481,0.492 C0.799,0.170 1.181,0.008 1.629,0.008 L7.848,0.008 L7.848,0.008 ZM4.739,15.352 C5.051,15.352 5.319,15.274 5.543,15.117 C5.767,14.961 5.879,14.768 5.879,14.539 C5.879,14.310 5.767,14.117 5.543,13.961 C5.319,13.805 5.051,13.727 4.739,13.727 C4.426,13.727 4.158,13.805 3.934,13.961 C3.710,14.117 3.598,14.310 3.598,14.539 C3.598,14.768 3.710,14.961 3.934,15.117 C4.158,15.274 4.426,15.352 4.739,15.352 L4.739,15.352 ZM8.161,12.914 L8.161,2.133 L1.317,2.133 L1.317,12.914 L8.161,12.914 L8.161,12.914 Z" class="cls-1"/>
</svg>
