<svg xmlns="http://www.w3.org/2000/svg" xmlns:xlink="http://www.w3.org/1999/xlink" preserveAspectRatio="xMidYMid" width="31.41" height="31.97" viewBox="0 0 31.41 31.97">
  <defs>
    <style>
      .cls-1 {
        fill: #c6c6c6;
        filter: url(#color-overlay-1);
        fill-rule: evenodd;
      }
    </style>

    <filter id="color-overlay-1" filterUnits="userSpaceOnUse">
      <feFlood/>
      <feComposite operator="in" in2="SourceGraphic"/>
      <feBlend in2="SourceGraphic" result="solidFill"/>
    </filter>
  </defs>
  <path d="M15.707,-0.000 C17.879,-0.000 19.912,0.413 21.808,1.237 C23.703,2.062 25.364,3.202 26.791,4.656 C28.218,6.110 29.347,7.814 30.177,9.767 C31.008,11.720 31.423,13.804 31.423,16.018 C31.423,18.189 31.008,20.250 30.177,22.204 C29.347,24.157 28.218,25.861 26.791,27.315 C25.364,28.770 23.703,29.910 21.808,30.734 C19.912,31.558 17.879,31.971 15.707,31.971 C13.535,31.971 11.500,31.558 9.605,30.734 C7.710,29.910 6.049,28.770 4.622,27.315 C3.195,25.861 2.067,24.157 1.236,22.204 C0.406,20.250 -0.010,18.189 -0.010,16.018 C-0.010,13.804 0.406,11.720 1.236,9.767 C2.067,7.814 3.195,6.110 4.622,4.656 C6.049,3.202 7.710,2.062 9.605,1.237 C11.500,0.413 13.535,-0.000 15.707,-0.000 L15.707,-0.000 ZM11.873,22.595 L11.873,12.176 L8.679,12.176 L8.679,22.595 L11.873,22.595 L11.873,22.595 ZM10.276,10.939 C10.532,10.939 10.765,10.896 10.979,10.809 C11.192,10.722 11.372,10.603 11.522,10.451 C11.671,10.299 11.778,10.125 11.842,9.930 C11.905,9.735 11.937,9.529 11.937,9.311 C11.937,9.051 11.905,8.823 11.842,8.627 C11.778,8.432 11.671,8.270 11.522,8.139 C11.372,8.009 11.192,7.901 10.979,7.814 C10.765,7.727 10.532,7.683 10.276,7.683 C10.021,7.683 9.786,7.727 9.574,7.814 C9.360,7.901 9.190,8.009 9.062,8.139 C8.935,8.270 8.828,8.432 8.743,8.627 C8.657,8.823 8.615,9.051 8.615,9.311 C8.615,9.529 8.647,9.735 8.711,9.930 C8.775,10.125 8.881,10.299 9.031,10.451 C9.179,10.603 9.360,10.722 9.574,10.809 C9.786,10.896 10.021,10.939 10.276,10.939 L10.276,10.939 ZM23.501,22.595 L23.501,16.474 C23.501,15.692 23.405,15.020 23.213,14.455 C23.022,13.892 22.766,13.425 22.447,13.055 C22.127,12.687 21.744,12.415 21.297,12.241 C20.850,12.068 20.349,11.981 19.796,11.981 C19.369,11.981 18.986,12.036 18.646,12.144 C18.304,12.253 18.007,12.394 17.751,12.567 C17.496,12.741 17.272,12.925 17.080,13.120 C16.889,13.316 16.750,13.501 16.665,13.674 L16.601,13.674 L16.473,12.176 L13.662,12.176 C13.704,12.437 13.726,12.687 13.726,12.925 C13.726,13.164 13.726,13.425 13.726,13.706 C13.726,13.989 13.736,14.282 13.758,14.586 C13.779,14.890 13.790,15.194 13.790,15.497 L13.790,22.595 L16.921,22.595 L16.921,16.604 C16.921,16.517 16.930,16.441 16.952,16.376 C16.973,16.311 16.985,16.246 16.985,16.181 C16.985,16.116 16.994,16.051 17.016,15.986 C17.037,15.920 17.048,15.866 17.048,15.823 C17.090,15.650 17.165,15.497 17.272,15.367 C17.378,15.237 17.496,15.106 17.623,14.976 C17.751,14.846 17.900,14.748 18.071,14.683 C18.240,14.618 18.454,14.586 18.709,14.586 C18.965,14.586 19.198,14.641 19.412,14.748 C19.625,14.857 19.796,15.009 19.923,15.204 C20.051,15.399 20.147,15.639 20.211,15.920 C20.275,16.203 20.307,16.517 20.307,16.865 L20.307,22.595 L23.501,22.595 L23.501,22.595 Z" class="cls-1"/>
</svg>
