<svg xmlns="http://www.w3.org/2000/svg" xmlns:xlink="http://www.w3.org/1999/xlink" preserveAspectRatio="xMidYMid" width="31.44" height="31.97" viewBox="0 0 31.44 31.97">
  <defs>
    <style>
      .cls-1 {
        fill: #c6c6c6;
        filter: url(#color-overlay-1);
        fill-rule: evenodd;
      }
    </style>

    <filter id="color-overlay-1" filterUnits="userSpaceOnUse">
      <feFlood/>
      <feComposite operator="in" in2="SourceGraphic"/>
      <feBlend in2="SourceGraphic" result="solidFill"/>
    </filter>
  </defs>
  <path d="M15.722,-0.000 C17.894,-0.000 19.928,0.413 21.823,1.237 C23.718,2.062 25.379,3.202 26.807,4.656 C28.233,6.110 29.362,7.814 30.193,9.767 C31.023,11.720 31.439,13.804 31.439,16.018 C31.439,18.189 31.023,20.250 30.193,22.204 C29.362,24.157 28.233,25.861 26.807,27.315 C25.379,28.770 23.718,29.910 21.823,30.734 C19.928,31.558 17.894,31.971 15.722,31.971 C13.550,31.971 11.516,31.558 9.621,30.734 C7.725,29.910 6.064,28.770 4.638,27.315 C3.210,25.861 2.082,24.157 1.252,22.204 C0.421,20.250 0.006,18.189 0.006,16.018 C0.006,13.804 0.421,11.720 1.252,9.767 C2.082,7.814 3.210,6.110 4.638,4.656 C6.064,3.202 7.725,2.062 9.621,1.237 C11.516,0.413 13.550,-0.000 15.722,-0.000 L15.722,-0.000 ZM22.111,13.088 C22.239,13.001 22.377,12.892 22.526,12.762 C22.675,12.632 22.814,12.502 22.942,12.372 C23.069,12.241 23.197,12.101 23.325,11.948 C23.453,11.797 23.558,11.634 23.644,11.460 C23.516,11.547 23.378,11.613 23.229,11.655 C23.079,11.699 22.931,11.743 22.782,11.786 C22.632,11.829 22.483,11.862 22.335,11.883 C22.185,11.906 22.025,11.938 21.855,11.981 C22.025,11.894 22.185,11.786 22.335,11.655 C22.483,11.525 22.611,11.385 22.718,11.232 C22.824,11.081 22.920,10.918 23.005,10.744 C23.090,10.571 23.175,10.397 23.261,10.223 C23.090,10.310 22.931,10.397 22.782,10.483 C22.632,10.571 22.472,10.646 22.303,10.711 C22.132,10.776 21.961,10.831 21.792,10.874 C21.621,10.918 21.450,10.961 21.281,11.004 C21.153,10.831 21.003,10.690 20.833,10.581 C20.663,10.473 20.482,10.376 20.290,10.288 C20.099,10.201 19.896,10.125 19.683,10.060 C19.470,9.995 19.257,9.962 19.044,9.962 C18.618,9.962 18.214,10.050 17.830,10.223 C17.447,10.397 17.117,10.625 16.840,10.907 C16.563,11.189 16.339,11.525 16.169,11.916 C15.999,12.307 15.914,12.719 15.914,13.153 C15.914,13.197 15.914,13.251 15.914,13.316 C15.914,13.381 15.924,13.446 15.946,13.511 C15.967,13.576 15.978,13.641 15.978,13.706 C15.978,13.772 15.978,13.826 15.978,13.869 C15.339,13.826 14.721,13.718 14.125,13.544 C13.528,13.371 12.964,13.143 12.432,12.860 C11.899,12.578 11.399,12.241 10.931,11.851 C10.462,11.460 10.036,11.027 9.653,10.548 C9.567,10.679 9.503,10.809 9.461,10.939 C9.418,11.069 9.375,11.200 9.333,11.330 C9.291,11.460 9.259,11.590 9.238,11.720 C9.216,11.851 9.206,12.003 9.206,12.176 C9.206,12.437 9.238,12.697 9.302,12.958 C9.365,13.218 9.461,13.457 9.589,13.674 C9.717,13.892 9.866,14.097 10.036,14.293 C10.206,14.488 10.398,14.650 10.611,14.781 C10.483,14.781 10.356,14.771 10.228,14.748 C10.100,14.727 9.972,14.694 9.845,14.650 C9.717,14.608 9.599,14.564 9.493,14.520 C9.386,14.477 9.291,14.434 9.206,14.390 C9.206,14.781 9.270,15.150 9.397,15.497 C9.525,15.845 9.695,16.159 9.909,16.441 C10.121,16.724 10.377,16.952 10.675,17.125 C10.973,17.299 11.292,17.429 11.634,17.516 C11.591,17.516 11.538,17.527 11.474,17.548 C11.410,17.571 11.346,17.581 11.282,17.581 C11.218,17.581 11.143,17.592 11.058,17.613 C10.973,17.636 10.909,17.646 10.867,17.646 C10.824,17.646 10.771,17.636 10.707,17.613 C10.643,17.592 10.589,17.581 10.547,17.581 C10.504,17.581 10.462,17.581 10.420,17.581 C10.377,17.581 10.334,17.581 10.292,17.581 C10.377,17.885 10.515,18.167 10.707,18.427 C10.899,18.688 11.122,18.916 11.378,19.111 C11.634,19.306 11.910,19.459 12.208,19.567 C12.506,19.676 12.825,19.729 13.167,19.729 C12.911,19.947 12.634,20.143 12.336,20.315 C12.038,20.489 11.718,20.631 11.378,20.739 C11.036,20.848 10.696,20.934 10.356,20.999 C10.014,21.064 9.674,21.097 9.333,21.097 C9.248,21.097 9.174,21.097 9.110,21.097 C9.046,21.097 8.982,21.097 8.918,21.097 C8.854,21.097 8.801,21.097 8.759,21.097 C8.716,21.097 8.652,21.076 8.567,21.032 C8.907,21.292 9.270,21.510 9.653,21.683 C10.036,21.857 10.420,21.998 10.803,22.106 C11.186,22.215 11.591,22.302 12.017,22.367 C12.442,22.432 12.868,22.464 13.295,22.464 C14.742,22.464 16.010,22.194 17.096,21.650 C18.182,21.108 19.097,20.403 19.843,19.534 C20.588,18.666 21.153,17.701 21.536,16.637 C21.919,15.573 22.111,14.520 22.111,13.478 C22.111,13.392 22.111,13.338 22.111,13.316 C22.111,13.294 22.111,13.262 22.111,13.218 C22.111,13.175 22.111,13.132 22.111,13.088 L22.111,13.088 L22.111,13.088 L22.111,13.088 L22.111,13.088 L22.111,13.088 L22.111,13.088 L22.111,13.088 Z" class="cls-1"/>
</svg>
