<svg xmlns="http://www.w3.org/2000/svg" xmlns:xlink="http://www.w3.org/1999/xlink" preserveAspectRatio="xMidYMid" width="31.44" height="32" viewBox="0 0 31.44 32">
  <defs>
    <style>
      .cls-1 {
        fill: #c6c6c6;
        filter: url(#color-overlay-1);
        fill-rule: evenodd;
      }
    </style>

    <filter id="color-overlay-1" filterUnits="userSpaceOnUse">
      <feFlood/>
      <feComposite operator="in" in2="SourceGraphic"/>
      <feBlend in2="SourceGraphic" result="solidFill"/>
    </filter>
  </defs>
  <path d="M18.328,15.725 C18.499,15.790 18.584,15.877 18.584,15.986 C18.584,16.094 18.499,16.192 18.328,16.279 L14.655,18.004 C14.506,18.091 14.372,18.097 14.256,18.020 C14.138,17.944 14.080,17.820 14.080,17.646 L14.080,14.358 C14.080,14.162 14.138,14.027 14.256,13.951 C14.372,13.875 14.506,13.880 14.655,13.967 L18.328,15.725 L18.328,15.725 ZM15.709,-0.000 C17.881,-0.000 19.920,0.418 21.826,1.253 C23.732,2.089 25.393,3.229 26.809,4.672 C28.225,6.116 29.349,7.808 30.180,9.751 C31.010,11.693 31.425,13.772 31.425,15.986 C31.425,18.199 31.010,20.278 30.180,22.220 C29.349,24.163 28.225,25.856 26.809,27.299 C25.393,28.743 23.732,29.887 21.826,30.734 C19.920,31.580 17.881,32.004 15.709,32.004 C13.537,32.004 11.498,31.580 9.592,30.734 C7.686,29.887 6.025,28.743 4.609,27.299 C3.192,25.856 2.069,24.163 1.239,22.220 C0.408,20.278 -0.007,18.199 -0.007,15.986 C-0.007,13.772 0.408,11.693 1.239,9.751 C2.069,7.808 3.192,6.116 4.609,4.672 C6.025,3.229 7.686,2.089 9.592,1.253 C11.498,0.418 13.537,-0.000 15.709,-0.000 L15.709,-0.000 ZM15.709,22.497 C19.734,22.497 22.103,22.133 22.817,21.406 C23.530,20.679 23.887,18.872 23.887,15.986 C23.887,13.099 23.530,11.297 22.817,10.581 C22.103,9.865 19.734,9.507 15.709,9.507 C11.684,9.507 9.315,9.865 8.602,10.581 C7.888,11.297 7.532,13.099 7.532,15.986 C7.532,18.872 7.888,20.679 8.602,21.406 C9.315,22.133 11.684,22.497 15.709,22.497 L15.709,22.497 Z" class="cls-1"/>
</svg>
