<svg xmlns="http://www.w3.org/2000/svg" xmlns:xlink="http://www.w3.org/1999/xlink" preserveAspectRatio="xMidYMid" width="31.44" height="31.97" viewBox="0 0 31.44 31.97">
  <defs>
    <style>
      .cls-1 {
        fill: #c6c6c6;
        filter: url(#color-overlay-1);
        fill-rule: evenodd;
      }
    </style>

    <filter id="color-overlay-1" filterUnits="userSpaceOnUse">
      <feFlood/>
      <feComposite operator="in" in2="SourceGraphic"/>
      <feBlend in2="SourceGraphic" result="solidFill"/>
    </filter>
  </defs>
  <path d="M15.708,-0.000 C17.880,-0.000 19.913,0.413 21.809,1.237 C23.704,2.062 25.365,3.202 26.792,4.656 C28.219,6.110 29.348,7.814 30.178,9.767 C31.009,11.720 31.424,13.804 31.424,16.018 C31.424,18.189 31.009,20.250 30.178,22.204 C29.348,24.157 28.219,25.861 26.792,27.315 C25.365,28.770 23.704,29.910 21.809,30.734 C19.913,31.558 17.880,31.971 15.708,31.971 C13.536,31.971 11.501,31.558 9.607,30.734 C7.711,29.910 6.050,28.770 4.623,27.315 C3.196,25.861 2.068,24.157 1.237,22.204 C0.407,20.250 -0.009,18.189 -0.009,16.018 C-0.009,13.804 0.407,11.720 1.237,9.767 C2.068,7.814 3.196,6.110 4.623,4.656 C6.050,3.202 7.711,2.062 9.607,1.237 C11.501,0.413 13.536,-0.000 15.708,-0.000 L15.708,-0.000 ZM19.413,11.069 L19.413,8.400 L17.049,8.400 C16.580,8.400 16.133,8.497 15.708,8.693 C15.282,8.888 14.919,9.160 14.622,9.507 C14.323,9.855 14.089,10.255 13.919,10.711 C13.748,11.167 13.663,11.655 13.663,12.176 L13.663,13.674 L11.172,13.674 L11.172,16.148 L13.663,16.148 L13.663,23.571 L16.474,23.571 L16.474,16.148 L19.413,16.148 L19.413,13.674 L16.474,13.674 L16.474,11.916 C16.474,11.786 16.495,11.666 16.538,11.558 C16.580,11.450 16.623,11.362 16.666,11.297 C16.708,11.232 16.772,11.178 16.858,11.134 C16.943,11.092 17.006,11.069 17.049,11.069 L19.413,11.069 L19.413,11.069 Z" class="cls-1"/>
</svg>
