<svg xmlns="http://www.w3.org/2000/svg" xmlns:xlink="http://www.w3.org/1999/xlink" preserveAspectRatio="xMidYMid" width="31.44" height="32" viewBox="0 0 31.44 32">
  <defs>
    <style>
      .cls-1 {
        fill: #c6c6c6;
        filter: url(#color-overlay-1);
        fill-rule: evenodd;
      }
    </style>

    <filter id="color-overlay-1" filterUnits="userSpaceOnUse">
      <feFlood/>
      <feComposite operator="in" in2="SourceGraphic"/>
      <feBlend in2="SourceGraphic" result="solidFill"/>
    </filter>
  </defs>
  <path d="M20.644,15.986 C20.644,15.855 20.633,15.720 20.612,15.578 C20.591,15.438 20.569,15.302 20.548,15.171 L22.273,15.171 L22.273,21.813 C22.273,22.052 22.193,22.253 22.034,22.415 C21.874,22.578 21.677,22.660 21.443,22.660 L10.007,22.660 C9.772,22.660 9.576,22.578 9.416,22.415 C9.256,22.253 9.176,22.052 9.176,21.813 L9.176,15.171 L10.901,15.171 C10.880,15.302 10.858,15.438 10.837,15.578 C10.816,15.720 10.805,15.855 10.805,15.986 C10.805,17.375 11.284,18.557 12.243,19.534 C13.201,20.511 14.362,20.999 15.725,20.999 C17.087,20.999 18.248,20.511 19.207,19.534 C20.165,18.557 20.644,17.375 20.644,15.986 L20.644,15.986 ZM15.725,19.339 C14.830,19.339 14.064,19.013 13.425,18.362 C12.786,17.711 12.466,16.919 12.466,15.986 C12.466,15.074 12.786,14.293 13.425,13.641 C14.064,12.990 14.830,12.665 15.725,12.665 C16.619,12.665 17.386,12.990 18.025,13.641 C18.663,14.293 18.983,15.074 18.983,15.986 C18.983,16.919 18.663,17.711 18.025,18.362 C17.386,19.013 16.619,19.339 15.725,19.339 L15.725,19.339 ZM19.654,12.502 C19.526,12.502 19.414,12.453 19.318,12.355 C19.222,12.257 19.164,12.133 19.143,11.981 L19.143,9.995 C19.143,9.865 19.196,9.751 19.302,9.653 C19.409,9.555 19.526,9.507 19.654,9.507 L21.602,9.507 C21.751,9.507 21.874,9.555 21.970,9.653 C22.065,9.751 22.113,9.865 22.113,9.995 L22.113,11.981 C22.113,12.133 22.065,12.257 21.970,12.355 C21.874,12.453 21.751,12.502 21.602,12.502 L19.654,12.502 L19.654,12.502 ZM15.725,-0.000 C17.897,-0.000 19.936,0.418 21.842,1.253 C23.748,2.089 25.409,3.229 26.825,4.672 C28.241,6.116 29.365,7.808 30.195,9.751 C31.026,11.693 31.441,13.772 31.441,15.986 C31.441,18.199 31.026,20.278 30.195,22.220 C29.365,24.163 28.241,25.856 26.825,27.299 C25.409,28.743 23.748,29.887 21.842,30.734 C19.936,31.580 17.897,32.004 15.725,32.004 C13.552,32.004 11.513,31.580 9.607,30.734 C7.701,29.887 6.040,28.743 4.624,27.299 C3.208,25.856 2.085,24.163 1.254,22.220 C0.424,20.278 0.008,18.199 0.008,15.986 C0.008,13.772 0.424,11.693 1.254,9.751 C2.085,7.808 3.208,6.116 4.624,4.672 C6.040,3.229 7.701,2.089 9.607,1.253 C11.513,0.418 13.552,-0.000 15.725,-0.000 L15.725,-0.000 ZM23.902,22.464 L23.902,9.507 C23.902,9.007 23.727,8.574 23.375,8.204 C23.024,7.835 22.592,7.651 22.081,7.651 L9.368,7.651 C8.857,7.651 8.425,7.835 8.074,8.204 C7.723,8.574 7.547,9.007 7.547,9.507 L7.547,22.464 C7.547,22.985 7.723,23.425 8.074,23.783 C8.425,24.141 8.857,24.320 9.368,24.320 L22.081,24.320 C22.592,24.320 23.024,24.141 23.375,23.783 C23.727,23.425 23.902,22.985 23.902,22.464 L23.902,22.464 Z" class="cls-1"/>
</svg>
