<svg xmlns="http://www.w3.org/2000/svg" xmlns:xlink="http://www.w3.org/1999/xlink" preserveAspectRatio="xMidYMid" width="31.43" height="31.97" viewBox="0 0 31.43 31.97">
  <defs>
    <style>
      .cls-1 {
        fill: #c6c6c6;
        filter: url(#color-overlay-1);
        fill-rule: evenodd;
      }
    </style>

    <filter id="color-overlay-1" filterUnits="userSpaceOnUse">
      <feFlood/>
      <feComposite operator="in" in2="SourceGraphic"/>
      <feBlend in2="SourceGraphic" result="solidFill"/>
    </filter>
  </defs>
  <path d="M15.711,-0.000 C17.883,-0.000 19.917,0.413 21.812,1.237 C23.707,2.062 25.368,3.202 26.796,4.656 C28.222,6.110 29.351,7.814 30.182,9.767 C31.012,11.720 31.427,13.804 31.427,16.018 C31.427,18.189 31.012,20.250 30.182,22.204 C29.351,24.157 28.222,25.861 26.796,27.315 C25.368,28.770 23.707,29.910 21.812,30.734 C19.917,31.558 17.883,31.971 15.711,31.971 C13.539,31.971 11.505,31.558 9.610,30.734 C7.714,29.910 6.053,28.770 4.627,27.315 C3.199,25.861 2.071,24.157 1.241,22.204 C0.410,20.250 -0.005,18.189 -0.005,16.018 C-0.005,13.804 0.410,11.720 1.241,9.767 C2.071,7.814 3.199,6.110 4.627,4.656 C6.053,3.202 7.714,2.062 9.610,1.237 C11.505,0.413 13.539,-0.000 15.711,-0.000 L15.711,-0.000 ZM22.931,12.892 C23.143,11.678 22.962,10.820 22.387,10.321 C21.812,9.822 21.131,9.615 20.343,9.702 C19.554,9.789 18.788,10.148 18.043,10.776 C17.297,11.406 16.839,12.241 16.670,13.283 C17.095,13.023 17.457,12.915 17.756,12.958 C18.053,13.001 18.288,13.132 18.458,13.348 C18.628,13.566 18.714,13.859 18.714,14.227 C18.714,14.597 18.607,14.998 18.394,15.432 C18.181,15.866 17.968,16.246 17.756,16.572 C17.542,16.897 17.350,17.180 17.181,17.418 C17.010,17.657 16.850,17.853 16.701,18.004 C16.552,18.157 16.414,18.232 16.286,18.232 C16.200,18.232 16.105,18.157 15.999,18.004 C15.892,17.853 15.796,17.646 15.711,17.385 C15.625,17.125 15.530,16.799 15.424,16.409 C15.317,16.018 15.200,15.585 15.072,15.106 C14.945,14.586 14.838,13.999 14.753,13.348 C14.667,12.697 14.550,12.090 14.401,11.525 C14.252,10.961 14.039,10.506 13.763,10.158 C13.485,9.811 13.092,9.702 12.581,9.832 C12.070,9.920 11.558,10.148 11.047,10.516 C10.536,10.885 10.057,11.287 9.610,11.720 C9.163,12.155 8.662,12.697 8.109,13.348 L8.684,14.195 C8.981,13.978 9.216,13.815 9.386,13.706 C9.556,13.599 9.738,13.533 9.929,13.511 C10.121,13.490 10.259,13.544 10.345,13.674 C10.472,13.804 10.653,14.227 10.888,14.943 C11.121,15.660 11.367,16.452 11.622,17.320 C11.878,18.189 12.123,19.024 12.357,19.827 C12.591,20.631 12.772,21.185 12.900,21.487 C13.028,21.705 13.198,21.943 13.411,22.204 C13.624,22.464 13.868,22.682 14.146,22.855 C14.422,23.029 14.721,23.127 15.040,23.148 C15.360,23.170 15.689,23.073 16.031,22.855 C16.371,22.595 16.882,22.161 17.564,21.553 C18.245,20.945 18.947,20.208 19.672,19.339 C20.396,18.471 21.067,17.483 21.685,16.376 C22.302,15.269 22.717,14.108 22.931,12.892 L22.931,12.892 L22.931,12.892 L22.931,12.892 Z" class="cls-1"/>
</svg>
