<svg xmlns="http://www.w3.org/2000/svg" xmlns:xlink="http://www.w3.org/1999/xlink" preserveAspectRatio="xMidYMid" width="31.43" height="31.97" viewBox="0 0 31.43 31.97">
  <defs>
    <style>
      .cls-1 {
        fill: #c6c6c6;
        filter: url(#color-overlay-1);
        fill-rule: evenodd;
      }
    </style>

    <filter id="color-overlay-1" filterUnits="userSpaceOnUse">
      <feFlood/>
      <feComposite operator="in" in2="SourceGraphic"/>
      <feBlend in2="SourceGraphic" result="solidFill"/>
    </filter>
  </defs>
  <path d="M14.256,11.460 C14.341,11.808 14.373,12.144 14.352,12.469 C14.330,12.795 14.266,13.099 14.160,13.381 C14.054,13.664 13.915,13.902 13.745,14.097 C13.574,14.293 13.383,14.413 13.170,14.455 C13.127,14.455 13.095,14.455 13.074,14.455 C13.052,14.455 13.031,14.466 13.010,14.488 C12.989,14.510 12.968,14.520 12.947,14.520 C12.925,14.520 12.893,14.520 12.851,14.520 C12.637,14.520 12.436,14.466 12.244,14.358 C12.052,14.250 11.871,14.108 11.701,13.934 C11.530,13.761 11.370,13.544 11.222,13.283 C11.072,13.023 10.976,12.762 10.934,12.502 C10.891,12.329 10.859,12.166 10.838,12.013 C10.816,11.862 10.806,11.710 10.806,11.558 C10.806,11.406 10.816,11.265 10.838,11.134 C10.859,11.004 10.891,10.853 10.934,10.679 C10.976,10.548 11.030,10.429 11.094,10.321 C11.158,10.213 11.232,10.115 11.317,10.028 C11.402,9.941 11.498,9.865 11.605,9.800 C11.711,9.735 11.807,9.702 11.892,9.702 C11.934,9.659 11.966,9.637 11.988,9.637 C12.009,9.637 12.030,9.637 12.052,9.637 C12.073,9.637 12.126,9.637 12.212,9.637 C12.467,9.637 12.701,9.669 12.915,9.735 C13.127,9.800 13.308,9.897 13.458,10.028 C13.606,10.158 13.755,10.343 13.905,10.581 C14.054,10.820 14.170,11.113 14.256,11.460 L14.256,11.460 L14.256,11.460 ZM15.726,-0.000 C17.898,-0.000 19.931,0.413 21.827,1.237 C23.722,2.062 25.383,3.202 26.810,4.656 C28.237,6.110 29.366,7.814 30.196,9.767 C31.027,11.720 31.442,13.804 31.442,16.018 C31.442,18.189 31.027,20.250 30.196,22.204 C29.366,24.157 28.237,25.861 26.810,27.315 C25.383,28.770 23.722,29.910 21.827,30.734 C19.931,31.558 17.898,31.971 15.726,31.971 C13.553,31.971 11.519,31.558 9.624,30.734 C7.729,29.910 6.068,28.770 4.641,27.315 C3.214,25.861 2.086,24.157 1.255,22.204 C0.425,20.250 0.009,18.189 0.009,16.018 C0.009,13.804 0.425,11.720 1.255,9.767 C2.086,7.814 3.214,6.110 4.641,4.656 C6.068,3.202 7.729,2.062 9.624,1.237 C11.519,0.413 13.553,-0.000 15.726,-0.000 L15.726,-0.000 ZM14.831,22.855 C15.129,22.682 15.406,22.497 15.662,22.302 C15.917,22.106 16.119,21.868 16.269,21.585 C16.418,21.303 16.534,20.999 16.620,20.674 C16.705,20.348 16.748,19.990 16.748,19.599 C16.748,19.209 16.694,18.862 16.588,18.557 C16.481,18.254 16.343,17.982 16.173,17.744 C16.002,17.505 15.811,17.288 15.598,17.092 C15.384,16.897 15.193,16.734 15.023,16.604 C14.937,16.474 14.841,16.366 14.735,16.279 C14.629,16.192 14.533,16.106 14.448,16.018 C14.362,15.931 14.298,15.845 14.256,15.758 C14.213,15.671 14.192,15.585 14.192,15.497 C14.192,15.411 14.213,15.334 14.256,15.269 C14.298,15.204 14.352,15.129 14.416,15.041 C14.480,14.955 14.544,14.878 14.608,14.814 C14.671,14.748 14.745,14.673 14.831,14.586 C15.001,14.455 15.151,14.315 15.278,14.162 C15.406,14.011 15.523,13.826 15.630,13.609 C15.736,13.392 15.821,13.143 15.885,12.860 C15.949,12.578 15.981,12.264 15.981,11.916 C15.981,11.613 15.959,11.330 15.917,11.069 C15.874,10.809 15.821,10.581 15.758,10.386 C15.694,10.190 15.587,10.006 15.438,9.832 C15.288,9.659 15.087,9.507 14.831,9.376 C14.873,9.376 14.916,9.366 14.959,9.344 C15.001,9.323 15.055,9.311 15.119,9.311 C15.183,9.311 15.246,9.301 15.310,9.279 C15.374,9.257 15.427,9.246 15.470,9.246 C15.598,9.246 15.736,9.236 15.885,9.214 C16.034,9.192 16.173,9.160 16.301,9.116 C16.428,9.073 16.534,9.018 16.620,8.953 C16.705,8.888 16.748,8.790 16.748,8.660 L16.748,8.595 L12.978,8.595 C12.936,8.595 12.712,8.617 12.308,8.660 C11.902,8.704 11.466,8.845 10.998,9.083 C10.529,9.323 10.093,9.692 9.688,10.190 C9.283,10.690 9.081,11.395 9.081,12.307 C9.081,12.611 9.113,12.892 9.177,13.153 C9.241,13.413 9.326,13.664 9.433,13.902 C9.539,14.141 9.666,14.348 9.816,14.520 C9.965,14.694 10.145,14.846 10.359,14.976 C10.487,15.106 10.647,15.204 10.838,15.269 C11.030,15.334 11.200,15.378 11.349,15.399 C11.498,15.422 11.647,15.443 11.797,15.464 C11.945,15.487 12.062,15.497 12.148,15.497 C12.190,15.497 12.222,15.497 12.244,15.497 C12.265,15.497 12.286,15.497 12.308,15.497 C12.329,15.497 12.361,15.497 12.403,15.497 C12.403,15.671 12.413,15.834 12.436,15.986 C12.456,16.138 12.499,16.322 12.563,16.539 C12.627,16.757 12.744,16.952 12.915,17.125 L12.851,17.125 C12.595,17.125 12.212,17.157 11.701,17.223 C11.190,17.288 10.689,17.429 10.199,17.646 C9.709,17.864 9.273,18.178 8.890,18.590 C8.506,19.003 8.315,19.578 8.315,20.315 C8.315,21.054 8.484,21.629 8.826,22.041 C9.166,22.454 9.561,22.757 10.008,22.953 C10.455,23.148 10.880,23.268 11.286,23.311 C11.690,23.354 11.977,23.376 12.148,23.376 L12.212,23.376 L12.276,23.376 L12.340,23.376 C12.467,23.376 12.616,23.376 12.787,23.376 C12.957,23.376 13.148,23.354 13.362,23.311 C13.574,23.268 13.809,23.213 14.064,23.148 C14.320,23.083 14.576,22.985 14.831,22.855 L14.831,22.855 L14.831,22.855 L14.831,22.855 L14.831,22.855 L14.831,22.855 L14.831,22.855 L14.831,22.855 L14.831,22.855 L14.831,22.855 L14.831,22.855 ZM23.137,15.953 L23.137,14.390 L20.645,14.390 L20.645,11.851 L19.112,11.851 L19.112,14.390 L16.620,14.390 L16.620,15.953 L19.112,15.953 L19.112,18.492 L20.645,18.492 L20.645,15.953 L23.137,15.953 L23.137,15.953 ZM12.851,17.906 C13.191,17.906 13.500,17.961 13.777,18.069 C14.054,18.178 14.298,18.319 14.512,18.492 C14.724,18.666 14.895,18.873 15.023,19.111 C15.151,19.350 15.215,19.599 15.215,19.860 C15.257,20.164 15.225,20.446 15.119,20.706 C15.012,20.967 14.852,21.185 14.640,21.358 C14.426,21.531 14.160,21.683 13.841,21.813 C13.522,21.943 13.191,22.008 12.851,22.008 C12.467,22.052 12.105,22.041 11.765,21.976 C11.423,21.911 11.126,21.803 10.870,21.650 C10.615,21.499 10.412,21.303 10.263,21.064 C10.114,20.826 10.018,20.555 9.976,20.250 C9.976,20.120 9.986,19.990 10.008,19.860 C10.029,19.729 10.072,19.589 10.136,19.436 C10.199,19.285 10.273,19.155 10.359,19.046 C10.444,18.938 10.551,18.818 10.679,18.688 C10.806,18.601 10.944,18.503 11.094,18.395 C11.243,18.287 11.391,18.199 11.541,18.134 C11.690,18.069 11.849,18.026 12.020,18.004 C12.190,17.982 12.382,17.950 12.595,17.906 C12.637,17.906 12.669,17.906 12.691,17.906 C12.712,17.906 12.733,17.906 12.755,17.906 C12.776,17.906 12.808,17.906 12.851,17.906 L12.851,17.906 L12.851,17.906 Z" class="cls-1"/>
</svg>
