<svg xmlns="http://www.w3.org/2000/svg" xmlns:xlink="http://www.w3.org/1999/xlink" preserveAspectRatio="xMidYMid" width="31.44" height="31.97" viewBox="0 0 31.44 31.97">
  <defs>
    <style>
      .cls-1 {
        fill: #c6c6c6;
        filter: url(#color-overlay-1);
        fill-rule: evenodd;
      }
    </style>

    <filter id="color-overlay-1" filterUnits="userSpaceOnUse">
      <feFlood/>
      <feComposite operator="in" in2="SourceGraphic"/>
      <feBlend in2="SourceGraphic" result="solidFill"/>
    </filter>
  </defs>
  <path d="M15.710,-0.000 C17.882,-0.000 19.916,0.413 21.811,1.237 C23.706,2.062 25.367,3.202 26.795,4.656 C28.221,6.110 29.350,7.814 30.181,9.767 C31.011,11.720 31.427,13.804 31.427,16.018 C31.427,18.189 31.011,20.250 30.181,22.204 C29.350,24.157 28.221,25.861 26.795,27.315 C25.367,28.770 23.706,29.910 21.811,30.734 C19.916,31.558 17.882,31.971 15.710,31.971 C13.538,31.971 11.504,31.558 9.609,30.734 C7.713,29.910 6.052,28.770 4.626,27.315 C3.198,25.861 2.070,24.157 1.240,22.204 C0.409,20.250 -0.006,18.189 -0.006,16.018 C-0.006,13.804 0.409,11.720 1.240,9.767 C2.070,7.814 3.198,6.110 4.626,4.656 C6.052,3.202 7.713,2.062 9.609,1.237 C11.504,0.413 13.538,-0.000 15.710,-0.000 L15.710,-0.000 ZM16.796,19.795 C17.733,19.882 18.553,19.708 19.256,19.274 C19.959,18.840 20.544,18.264 21.013,17.548 C21.481,16.832 21.800,16.008 21.971,15.074 C22.141,14.141 22.163,13.197 22.035,12.241 C21.949,11.417 21.684,10.690 21.236,10.060 C20.789,9.431 20.246,8.921 19.607,8.530 C18.968,8.139 18.234,7.869 17.403,7.716 C16.573,7.564 15.731,7.532 14.880,7.618 C14.198,7.706 13.527,7.901 12.867,8.204 C12.206,8.509 11.621,8.921 11.110,9.442 C10.599,9.962 10.173,10.560 9.833,11.232 C9.491,11.906 9.299,12.632 9.257,13.413 C9.257,13.934 9.289,14.401 9.353,14.814 C9.417,15.226 9.545,15.606 9.737,15.953 C9.928,16.301 10.173,16.594 10.471,16.832 C10.769,17.071 11.152,17.234 11.621,17.320 C11.834,16.973 11.930,16.680 11.909,16.441 C11.887,16.203 11.834,15.986 11.749,15.790 C11.663,15.595 11.558,15.399 11.430,15.204 C11.302,15.009 11.216,14.781 11.174,14.520 C11.003,13.436 11.174,12.469 11.685,11.623 C12.196,10.776 12.867,10.136 13.698,9.702 C14.528,9.269 15.423,9.073 16.381,9.116 C17.339,9.160 18.180,9.550 18.905,10.288 C19.416,10.809 19.713,11.536 19.799,12.469 C19.884,13.403 19.809,14.315 19.575,15.204 C19.341,16.094 18.947,16.832 18.393,17.418 C17.839,18.004 17.158,18.210 16.349,18.037 C15.582,17.906 15.220,17.527 15.263,16.897 C15.305,16.268 15.433,15.585 15.646,14.846 C15.859,14.108 16.030,13.413 16.157,12.762 C16.285,12.111 16.030,11.655 15.391,11.395 C14.922,11.178 14.496,11.200 14.113,11.460 C13.730,11.720 13.442,12.079 13.251,12.534 C13.059,12.990 12.963,13.490 12.963,14.032 C12.963,14.575 13.069,15.064 13.282,15.497 C13.155,16.192 12.995,16.887 12.803,17.581 C12.612,18.275 12.441,18.981 12.292,19.697 C12.142,20.413 12.037,21.162 11.973,21.943 C11.909,22.725 11.919,23.550 12.005,24.418 C12.430,24.115 12.771,23.756 13.027,23.343 C13.282,22.931 13.506,22.475 13.698,21.976 C13.889,21.478 14.059,20.957 14.209,20.413 C14.358,19.871 14.474,19.296 14.560,18.688 C14.773,18.818 14.953,18.948 15.103,19.078 C15.252,19.209 15.412,19.318 15.582,19.404 C15.752,19.491 15.934,19.567 16.125,19.632 C16.317,19.697 16.541,19.752 16.796,19.795 L16.796,19.795 Z" class="cls-1"/>
</svg>
